<svg width="22" height="29" viewBox="0 0 22 29" fill="none" xmlns="http://www.w3.org/2000/svg">
<path d="M3.1745 3.0425C5.34004 1.04925 7.94855 0.0526276 11 0.0526276C14.0515 0.0526276 16.6353 1.04925 18.7517 3.0425C20.9172 4.99044 22 7.36875 22 10.1774C22 11.5817 21.6063 13.1899 20.8188 15.002C20.0805 16.814 19.17 18.5128 18.0872 20.0983C17.0045 21.6839 15.9217 23.1788 14.8389 24.5831C13.8054 25.9422 12.9195 27.0294 12.1812 27.8448L11.6268 28.387C11.2831 28.7231 10.7298 28.7105 10.3952 28.3654C10.221 28.1857 10.0289 27.9896 9.81879 27.7769C9.32662 27.2333 8.44072 26.1913 7.16107 24.6511C5.88143 23.0656 4.74944 21.548 3.7651 20.0983C2.82998 18.6034 1.96868 16.9273 1.18121 15.0699C0.393736 13.2126 0 11.5817 0 10.1774C0 7.36875 1.05817 4.99044 3.1745 3.0425Z" fill="#2E2E2E"/>
</svg>
